<svg width="30" height="30" viewBox="0 0 30 30" fill="none" xmlns="http://www.w3.org/2000/svg">
<path d="M17.8009 7.47644C13.6524 7.47644 10.2773 10.8515 10.2773 15C10.2773 19.1485 13.6524 22.5236 17.8009 22.5236C21.9494 22.5236 25.3244 19.1485 25.3244 15C25.3244 10.8515 21.9494 7.47644 17.8009 7.47644ZM21.3486 15.8789H16.922V9.70951H18.6798V14.1211H21.3486V15.8789Z" fill="#FCFCFC"/>
<path d="M17.8344 2.80083C15.1579 2.79362 12.6819 3.64897 10.6673 5.10368H4.01508C2.96631 5.10368 2.11617 5.95387 2.11617 7.00258C2.11617 8.05135 2.96637 8.90149 4.01508 8.90149H7.23334C6.62016 9.9618 6.16248 11.1231 5.8902 12.3541H1.89891C0.850195 12.3541 0 13.2043 0 14.253C0 15.3018 0.850195 16.1519 1.89891 16.1519H5.65617C5.76961 17.363 6.06012 18.5225 6.50156 19.6045H5.14523C4.09646 19.6045 3.24633 20.4547 3.24633 21.5034C3.24633 22.5522 4.09652 23.4023 5.14523 23.4023H8.95699C11.1796 25.7409 14.3198 27.199 17.8008 27.199C24.5382 27.1991 30 21.7374 30 15C30 8.25977 24.5746 2.81899 17.8344 2.80083ZM17.8008 24.2813C12.6831 24.2813 8.51947 20.1177 8.51947 14.9999C8.51947 9.88217 12.6831 5.71856 17.8008 5.71856C22.9186 5.71856 27.0822 9.88217 27.0822 14.9999C27.0822 20.1177 22.9186 24.2813 17.8008 24.2813Z" fill="#FCFCFC"/>
</svg>
