<svg width="30" height="27" viewBox="0 0 30 27" fill="none" xmlns="http://www.w3.org/2000/svg">
<path d="M24.3214 13.0581C27.396 10.294 27.6478 5.56084 24.8837 2.48619C22.3486 -0.333769 18.1053 -0.812833 15.0053 1.37099C11.6259 -1.01398 6.95307 -0.207835 4.56811 3.17148C2.37971 6.27231 2.85683 10.52 5.6786 13.0581C2.17248 14.9063 -0.0157971 18.55 8.58803e-05 22.5134V25.7276C8.58803e-05 26.3194 0.479778 26.7991 1.07153 26.7991H28.9285C29.5202 26.7991 29.9999 26.3194 29.9999 25.7276V22.5134C30.0158 18.55 27.8275 14.9063 24.3214 13.0581ZM19.2856 2.15635C22.2401 2.15308 24.6379 4.54552 24.6412 7.50001C24.6435 9.60712 23.4088 11.5193 21.4874 12.3841C21.4049 12.4216 21.3224 12.4559 21.2389 12.4913C20.9744 12.598 20.7017 12.6828 20.4235 12.7452C20.3699 12.757 20.3163 12.7634 20.2617 12.7742C19.9508 12.8338 19.6354 12.8656 19.3188 12.8695C19.1763 12.8695 19.0328 12.8588 18.8902 12.846C18.8367 12.846 18.7831 12.846 18.7295 12.8353C18.1206 12.7636 17.5282 12.589 16.9778 12.3188C16.9574 12.3092 16.9338 12.3102 16.9135 12.3017C16.8063 12.2503 16.6992 12.2053 16.6038 12.1474C16.6124 12.1367 16.6178 12.1249 16.6263 12.1142C17.1176 11.4829 17.505 10.7772 17.7738 10.0238L17.807 9.93382C17.9292 9.57397 18.0241 9.20546 18.0909 8.8313C18.1006 8.77668 18.1081 8.72413 18.1167 8.66525C18.1786 8.28437 18.2112 7.89935 18.2142 7.51345C18.2111 7.1283 18.1785 6.74397 18.1167 6.36378C18.1081 6.30809 18.1006 6.25662 18.0909 6.19773C18.0241 5.82363 17.9292 5.45506 17.807 5.09521L17.7738 5.00518C17.505 4.25178 17.1176 3.54614 16.6263 2.91484C16.6177 2.90411 16.6124 2.89237 16.6038 2.88163C17.4178 2.40677 18.3433 2.15641 19.2856 2.15635ZM5.35718 7.51351C5.34958 4.56253 7.73561 2.16413 10.6866 2.15654C12.0698 2.15296 13.4006 2.68601 14.3989 3.64351C14.4611 3.70353 14.5222 3.76348 14.5821 3.82563C14.7661 4.01843 14.9358 4.22434 15.09 4.44168C15.1371 4.5081 15.18 4.57885 15.2239 4.64741C15.3736 4.87787 15.5051 5.11969 15.6171 5.37062C15.6439 5.4317 15.6642 5.49385 15.6878 5.55487C15.8007 5.83242 15.8896 6.11919 15.9535 6.41199C15.9611 6.44414 15.9632 6.47628 15.9696 6.50949C16.1053 7.17475 16.1053 7.86061 15.9696 8.52588C15.9632 8.55909 15.961 8.59123 15.9535 8.62337C15.8897 8.91617 15.8008 9.20295 15.6878 9.48049C15.6642 9.54157 15.6438 9.60373 15.6171 9.66475C15.505 9.9153 15.3735 10.1567 15.2239 10.3869C15.18 10.4554 15.1371 10.5262 15.09 10.5926C14.9359 10.81 14.7661 11.0159 14.5821 11.2087C14.5221 11.2708 14.461 11.3308 14.3989 11.3908C13.9651 11.8042 13.465 12.1417 12.9193 12.3893C12.8325 12.429 12.7447 12.4654 12.6558 12.4965C12.3975 12.599 12.1317 12.6814 11.8608 12.7429C11.7933 12.7579 11.7236 12.7665 11.6551 12.7783C11.3642 12.8324 11.0692 12.8621 10.7733 12.8672H10.6554C10.3596 12.8622 10.0646 12.8324 9.77365 12.7783C9.7051 12.7665 9.63542 12.7579 9.56793 12.7429C9.29698 12.6814 9.03117 12.599 8.77296 12.4965C8.68401 12.4612 8.59618 12.4248 8.50942 12.3893C6.59254 11.5239 5.35962 9.61666 5.35718 7.51351ZM19.2856 24.6562H2.14291V22.5134C2.12721 18.8827 4.41474 15.6412 7.8407 14.4392C9.67986 15.2049 11.7486 15.2049 13.5878 14.4392C13.9455 14.5699 14.2942 14.7241 14.6314 14.901C14.8543 15.0156 15.06 15.1463 15.2743 15.2781C15.4136 15.3649 15.5549 15.4496 15.6889 15.5449C15.8957 15.6917 16.0907 15.8513 16.2825 16.0153C16.4057 16.1224 16.5278 16.2295 16.6435 16.3367C16.8203 16.5038 16.9864 16.6806 17.146 16.8617C17.2606 16.9924 17.3721 17.1252 17.4782 17.2624C17.6185 17.4424 17.7524 17.6267 17.8767 17.8163C17.9839 17.977 18.0793 18.1441 18.1735 18.3113C18.2807 18.4956 18.3792 18.6799 18.4692 18.8717C18.5592 19.0635 18.6385 19.2735 18.7156 19.4781C18.7831 19.656 18.8549 19.8328 18.9106 20.0138C18.9856 20.2624 19.0381 20.5195 19.0906 20.7766C19.1227 20.9288 19.1645 21.0777 19.1881 21.232C19.2515 21.6562 19.2841 22.0844 19.2856 22.5134V24.6562H19.2856ZM27.857 24.6562H21.4285V22.5134C21.4285 22.1781 21.4092 21.8459 21.3792 21.517C21.3706 21.4206 21.3557 21.3252 21.345 21.2288C21.316 20.992 21.2828 20.7574 21.2378 20.5248C21.2185 20.4256 21.1982 20.3259 21.1767 20.2259C21.1253 19.9873 21.0657 19.7509 20.9978 19.5166C20.9753 19.4395 20.9549 19.3612 20.9314 19.2852C20.6313 18.3261 20.1966 17.4146 19.6403 16.5778L19.5985 16.5167C19.4143 16.2431 19.2174 15.9785 19.0081 15.7228L19.0007 15.7131C18.7864 15.4474 18.5539 15.1891 18.3096 14.9449C18.3235 14.9449 18.3385 14.9449 18.3535 14.9449C18.6559 14.9846 18.9604 15.0061 19.2653 15.0092H19.3243C19.6065 15.0067 19.8884 14.9884 20.1686 14.9545C20.2564 14.9438 20.3433 14.9277 20.4311 14.9138C20.659 14.8788 20.884 14.8334 21.1061 14.7778C21.1693 14.7617 21.2336 14.7467 21.2979 14.7285C21.5893 14.6492 21.8756 14.5518 22.155 14.4371C25.5835 15.6378 27.8731 18.8808 27.8571 22.5135V24.6562H27.857Z" fill="#FCFCFC"/>
</svg>
