<svg width="30" height="30" viewBox="0 0 30 30" fill="none" xmlns="http://www.w3.org/2000/svg">
  <path d="M9.49679 23.4303C9.48695 23.4409 9.47711 23.4514 9.46744 23.4619C8.87459 24.0996 9.32904 25.1367 10.2001 25.1367H19.7999C20.6709 25.1367 21.1254 24.0996 20.5326 23.4619C20.5229 23.4514 20.5131 23.4409 20.5033 23.4303C19.6119 22.4774 16.257 19.6465 16.2138 19.6094C15.5152 19.0103 14.4848 19.0103 13.7863 19.6094C13.7431 19.6464 10.3881 22.4774 9.49679 23.4303Z" fill="#FCFCFC"/>
  <path d="M19.5778 14.1154C19.8571 13.8724 20.1765 13.6039 20.5147 13.3196C23.0093 11.2226 26.4258 8.35072 26.4258 5.33203V3.51562C26.4258 1.57711 24.8487 0 22.9102 0H7.08984C5.15133 0 3.57422 1.57711 3.57422 3.51562V5.33203C3.57422 8.35072 6.9907 11.2226 9.48533 13.3197C9.82353 13.604 10.1429 13.8725 10.4222 14.1155C10.6876 14.3464 10.8398 14.6688 10.8398 15.0001C10.8398 15.3313 10.6877 15.6537 10.4222 15.8846C10.1429 16.1276 9.82353 16.3961 9.48533 16.6804C6.9907 18.7774 3.57422 21.6493 3.57422 24.668V26.4844C3.57422 28.4229 5.15133 30 7.08984 30H22.9102C24.8487 30 26.4258 28.4229 26.4258 26.4844C26.4258 25.8371 25.9011 25.3125 25.2539 25.3125C24.6067 25.3125 24.082 25.8371 24.082 26.4844C24.082 27.1305 23.5563 27.6562 22.9102 27.6562H7.08984C6.44367 27.6562 5.91797 27.1305 5.91797 26.4844V24.668C5.91797 22.7409 9.09516 20.0702 10.9934 18.4744C11.3394 18.1836 11.6662 17.9088 11.9606 17.6528C12.7378 16.9765 13.1836 16.0096 13.1836 15C13.1836 13.9903 12.7378 13.0234 11.9606 12.3472C11.6663 12.0912 11.3395 11.8164 10.9935 11.5256C9.09516 9.92982 5.91797 7.25906 5.91797 5.33203V3.51562C5.91797 2.86945 6.44367 2.34375 7.08984 2.34375H22.9102C23.5563 2.34375 24.082 2.86945 24.082 3.51562V5.33203C24.082 7.25906 20.9048 9.92982 19.0066 11.5256C18.6606 11.8164 18.3337 12.0911 18.0394 12.3472C17.2622 13.0234 16.8164 13.9903 16.8164 15C16.8164 16.0097 17.2622 16.9766 18.0394 17.6528C18.3461 17.9196 18.6878 18.2056 19.0496 18.5085C20.1898 19.4628 21.4819 20.5444 22.5019 21.6952C22.9311 22.1796 23.6718 22.2242 24.1562 21.7949C24.6405 21.3657 24.6851 20.6251 24.2559 20.1407C23.1202 18.8592 21.6973 17.6682 20.554 16.7112C20.201 16.4157 19.8676 16.1367 19.5778 15.8845C19.3124 15.6536 19.1602 15.3312 19.1602 15C19.1602 14.6688 19.3124 14.3463 19.5778 14.1154Z" fill="#FCFCFC"/>
  <path d="M16.2662 10.8536C16.2874 10.8351 17.1054 10.1325 18.0369 9.30837C18.7669 8.6625 18.3175 7.44141 17.3497 7.44141H12.7675C11.7997 7.44141 11.3503 8.6625 12.0803 9.30837C13.0118 10.1326 13.8298 10.8351 13.851 10.8536C14.546 11.4602 15.5712 11.4602 16.2662 10.8536Z" fill="#FCFCFC"/>
</svg>
