<svg width="45" height="45" viewBox="0 0 45 45" fill="none" xmlns="http://www.w3.org/2000/svg">
<path d="M38.41 29.09C35.9593 26.6395 33.0424 24.8253 29.8599 23.7271C33.2684 21.3795 35.5078 17.4505 35.5078 13.0078C35.5078 5.83532 29.6725 0 22.5 0C15.3275 0 9.49219 5.83532 9.49219 13.0078C9.49219 17.4505 11.7316 21.3795 15.1402 23.7271C11.9577 24.8253 9.04078 26.6395 6.59013 29.09C2.34044 33.3398 0 38.99 0 45H3.51562C3.51562 34.532 12.032 26.0156 22.5 26.0156C32.968 26.0156 41.4844 34.532 41.4844 45H45C45 38.99 42.6596 33.3398 38.41 29.09ZM22.5 22.5C17.266 22.5 13.0078 18.2419 13.0078 13.0078C13.0078 7.77375 17.266 3.51562 22.5 3.51562C27.734 3.51562 31.9922 7.77375 31.9922 13.0078C31.9922 18.2419 27.734 22.5 22.5 22.5Z" fill="#FCFCFC"/>
</svg>
